<svg xmlns="http://www.w3.org/2000/svg" viewBox="0 0 104 99"><path d="M21 16l5 10H11l10-10z" fill="#198e3d"/><path d="M21 16c0 4.4 0 8.8.1 13.1 0 7.7-.2 15.5.2 23.2.1 2.2.3 4.4.5 6.6.2 1.4.3 3.3 1 4.5C25 67.3 52.6 83 57.1 83c1.9 0 7.7-2.7 14.1-6.1 5-2.7 10.3-5.9 14.3-8.5 3.1-2.1 5.3-3.8 5.9-4.8.6-1 1-3.8 1.3-7.4l.3-5.4V16H21z" fill="#1ba94c"/><path fill="#fff" d="M50.1 50.6h-2.7L43 43c.1 1.3.1 2.3.1 2.9v4.7h-1.9v-10h2.7l4.3 7.5c-.1-1.3-.1-2.2-.1-2.8v-4.7H50v10zm8.3 0h-5.8v-10h5.8v1.7h-3.6v2.2h3.4v1.7h-3.4v2.6h3.6v1.8zm11.8 0h-2.4l-1.4-5.3c0-.2-.1-.6-.3-1.2-.1-.6-.2-1-.2-1.2 0 .2-.1.6-.2 1.2-.1.5-.2.9-.3 1.2l-1.3 5.2h-2.4l-2.6-10h2.1l1.3 5.5c.2 1 .4 1.9.5 2.6 0-.3.1-.7.2-1.2s.2-1 .3-1.3l1.5-5.6h2l1.5 5.6c.1.3.1.6.2 1.1s.2 1 .2 1.3c0-.4.1-.8.2-1.3s.2-1 .3-1.3l1.3-5.5h2.1l-2.6 10.2z"/></svg>
